/* XPM */
static char * wall_test_xpm[] = {
"64 64 14 1",
" 	c #A4A4A4",
".	c #331F1F",
"+	c #7D7D7D",
"@	c #5C5C5C",
"#	c #A3A3A3",
"$	c #321F1F",
"%	c #161A14",
"&	c #1F1313",
"*	c #4A4A4A",
"=	c #4B4B4B",
"-	c #1F1212",
";	c #5B5B5B",
">	c #130B0B",
",	c #1E1313",
"  ..++@@        ##++$$++@@######                      ++..++@@  ",
"  ..++@@          ++..++@@                            ++..++@@  ",
"++%%@@++++++++++++  %%@@++++++++++++++++++++++++++++++  %%@@++++",
"++%%@@++++++++++++  %%@@++++++++++++++++++++++++++++++  %%@@++++",
"++..  ++++++++++++++%%@@++++++++++++++++++++++++++++++++%%  ++++",
"++..  ++++++++++++++%%@@++++++++++++++++++++++++++++++++%%  ++++",
"++&&++  ++++****++==&&++  ++++======++==++==++++==++++++&&++  ++",
"++&&++  ++++****++==&&++  ++++======++==++==++++==++++++&&++  ++",
"&&&&----$$$$$$$$$$&&&&&&&&&&&&$$....%%%%..%%..%%......&&&&%%....",
"&&&&----$$$$$$$$$$&&&&&&&&&&&&$$....%%%%..%%..%%......&&&&%%....",
"++++--++;;              ++&&++;;                ++..@@@@        ",
"++++--++;;              ++&&++;;                ++..@@@@        ",
"++++$$;;++++++++++++++++  $$;;++++++++++++++++++  ..@@++++++++++",
"++++$$;;++++++++++++++++  $$;;++++++++++++++++++  ..@@++++++++++",
"++++$$  ++++++++++++++++++%%  ++++++++++++++++++++%%  ++++++++++",
"++++$$  ++++++++++++++++++%%  ++++++++++++++++++++%%  ++++++++++",
"++++%%  ++++++++++++++++==%%  ++++++++++++++++++++%%  ++++++++++",
"++++%%  ++++++++++++++++==%%  ++++++++++++++++++++%%  ++++++++++",
"++++&&++  ++++==++====++++&&++  ++++====++====++++&&++  ++==++++",
"++++&&++  ++++==++====++++&&++  ++++====++====++++&&++  ++==++++",
"$.&&&&>>&&$$$$$$$$$$$$$$&&>>>>&&$$$$$$$$$$$$$$$$&&&&&&&&&&$$$$$$",
"$.&&&&>>&&$$$$$$$$$$$$$$&&>>>>&&$$$$$$$$$$$$$$$$&&&&&&&&&&$$$$$$",
"#   ++&&++;;              ++>>++@@                  ++&&++@@    ",
"#   ++&&++;;              ++>>++@@                  ++&&++@@    ",
"++++  $$;;++++++++++++++++  $$@@++++++++++++++++++++  %%&&++++++",
"++++  $$;;++++++++++++++++  $$@@++++++++++++++++++++  %%&&++++++",
"++++++$$  ++++++++++++++++++%%  ++++++++++++++++++++++%%  ++++++",
"++++++$$  ++++++++++++++++++%%  ++++++++++++++++++++++%%  ++++++",
"++++++&&++  ++============++%%++  ++++==++==++======++&&++  ++++",
"++++++&&++  ++============++%%++  ++++==++==++======++&&++  ++++",
"$...&&&&&&$$$$$$&&&&&&$$$$&&&&&&$$$$$$$$$$$$$$&&&&&&&&&&&&$$$$$$",
"$...&&&&&&$$$$$$&&&&&&$$$$&&&&&&$$$$$$$$$$$$$$&&&&&&&&&&&&$$$$$$",
"                ++&&++@@                      ++&&++@@          ",
"                ++&&++@@                      ++&&++@@          ",
"++++++++++++++++  %%@@++++++++++++++++++++++++  %%@@++++++++++++",
"++++++++++++++++  %%@@++++++++++++++++++++++++  %%@@++++++++++++",
"++++++++++++++++++%%  ++++++++++++++++++++++++++%%  ++++++++++++",
"++++++++++++++++++%%  ++++++++++++++++++++++++++%%  ++++++++++++",
"++======++++==++++$$++    ++====++++====++====++&&++  ++++++++++",
"++======++++==++++$$++    ++====++++====++====++&&++  ++++++++++",
"..%%%%&&&&&&....%%$$$$$$$$%%%%&&&&&&......%%..%%&&&&............",
"..%%%%&&&&&&....%%$$$$$$$$%%%%&&&&&&......%%..%%&&&&............",
"      ++&&++@@                ++&&++@@              ++..++@@    ",
"      ++&&++@@                ++&&++@@              ++..++@@    ",
"++++++  ..@@++++++++++++++++++  %%    ++++++++++++++  %%@@++++++",
"++++++  ..@@++++++++++++++++++  %%    ++++++++++++++  %%@@++++++",
"++++++++..  ++++++++++++++++++++%%@@++++++++++++++++++%%  ++++++",
"++++++++..  ++++++++++++++++++++%%@@++++++++++++++++++%%  ++++++",
"++++++++..++  ++++==++========++..++  ++++++++++++++++..++  ++++",
"++++++++..++  ++++==++========++..++  ++++++++++++++++..++  ++++",
"..%%%%......%%..$$$$$$%%%%$$$$$$..............%%%%%%............",
"..%%%%......%%..$$$$$$%%%%$$$$$$..............%%%%%%............",
"              ++$$++@@                ++..++@@      ..          ",
"              ++$$++@@                ++..++@@      ..          ",
"++@@          ++$$++@@                            ++..++@@++++++",
"++@@          ++$$++@@                            ++..++@@++++++",
"@@++++++++++++  %%@@++++++++++++++++++++++++++++++  %%@@++++++++",
"@@++++++++++++  %%@@++++++++++++++++++++++++++++++  %%@@++++++++",
"  ++++++++++++++%%@@++++++++++++++++++++++++++++++++%%  ++====++",
"  ++++++++++++++%%@@++++++++++++++++++++++++++++++++%%  ++====++",
"++  ++++====++==&&++  ++++======++==++==++++==++++++&&++  ++++++",
"++  ++++====++==&&++  ++++======++==++==++++==++++++&&++  ++++++",
"&&,,..........&&&&&&&&&&&&$$$$$$%%%%..%%..%%......&&&&%%........",
"&&,,..........&&&&&&&&&&&&$$$$$$%%%%..%%..%%......&&&&%%........"};
