/* XPM */
static char * wall_other_xpm[] = {
"64 64 74 1",
" 	c #918D74",
".	c #908C74",
"+	c #645A73",
"@	c #625973",
"#	c #918C74",
"$	c #777260",
"%	c #8F8B73",
"&	c #76715F",
"*	c #75705F",
"=	c #635973",
"-	c #8F8B74",
";	c #615873",
">	c #625872",
",	c #615872",
"'	c #756F5F",
")	c #746F5E",
"!	c #75705E",
"~	c #8E8A73",
"{	c #625972",
"]	c #615772",
"^	c #605772",
"/	c #453E50",
"(	c #463F50",
"_	c #474150",
":	c #474050",
"<	c #736E5F",
"[	c #837E65",
"}	c #8E8A72",
"|	c #625871",
"1	c #756F5E",
"2	c #837E64",
"3	c #453E4F",
"4	c #453D51",
"5	c #474051",
"6	c #484150",
"7	c #484251",
"8	c #484151",
"9	c #605771",
"0	c #433C4F",
"a	c #908C73",
"b	c #746F5F",
"c	c #453E52",
"d	c #787360",
"e	c #908B73",
"f	c #635A72",
"g	c #655B73",
"h	c #645B72",
"i	c #8F8B72",
"j	c #847F65",
"k	c #4A4353",
"l	c #615771",
"m	c #635972",
"n	c #736E5D",
"o	c #494352",
"p	c #736E5E",
"q	c #474052",
"r	c #8D8972",
"s	c #76715E",
"t	c #463F51",
"u	c #5F5671",
"v	c #443D50",
"w	c #605672",
"x	c #464051",
"y	c #443E4F",
"z	c #605671",
"A	c #8F8A73",
"B	c #615773",
"C	c #767160",
"D	c #645B73",
"E	c #494251",
"F	c #847F66",
"G	c #625873",
"H	c #746E60",
"I	c #494252",
"                              .+.                             .@",
" # ............................+.# ............................@",
".$%&&&&&&&&&&&&&&&&&&&&&&&&&&&*=-$%&&&&&&&&&&&&&&&&&&&&&&&&&&&*;",
">,')))))))))))))))))))))))))!~{]>,')))))))))))))))))))))))))!~{^",
"//((((//_((((((((///:((((((/__////((((//_((((((((///:((((((/__//",
")))))<]>~&))))))<,^,[!))))<{~&)))))))<]>~&))))))<,^,[!))))<{~&))",
"))))),^]*}!)))))|<]]12!)),]]*}!)))))),^]*}!)))))|<]]12!)),]]*}!)",
"__(33444/(33(___5_55_6(3(555_7____(33444/(33(___5_55_8_3(555_7__",
"%%!//9^^940/!%a%a%%%%%!5!%a%a%%%%%!//9^^940/!%a%a%a%%%}8!%a%%%%%",
"&$%{)b;>b9c,. #de&&&&&%f...$%&&&&$%{)b;>b9c,. #d-g%&&&*{%a-h*&&&",
"&i&{j*{b*;]@.# e&!!!!!*=.d%&&!!!&i&{j*{b*;]@.# %g>klb!)l88mb)!!!",
"!&*{j!!!!{b=.$%&!!!!!!b=.e&!!!!!!&*{j!!!!{b=.$%$%.%k],5/n)blo)!!",
"!!!{j!!!!!*=.&&!!!!!!!{@.$!!!!!!!!!{j!!!!!*=.&&!&a.%=bp(<>9qrs!!",
"!!b{js!!!!b=%&!!!!!!!!b=.a&!!!!!!!b{js!!!!b=%&!!!&&*];94]]4(8)!!",
")),]12!))),]*}!)))))),]]*%%!)))))),]12!))),]*}!))))ntu4vwwxr,,))",
"__55_6(3(_55_7____(3yvv43((3(_____55_8_3(_55_7____(304vvvv0(/5__",
"a%%%%%!5!%aa%%%%%%!/yv4z40v/!%a%a%a%%%}8!%aa%%%%%%!//9^w400/!%a%",
"a&&&&.%f. .a&&&&&&%{b,]b9c9>. .$-g%&&&*|Aaaa&&&&&$%{)b;Buv4,. #$",
"&!!!&%C=.a$&!!!!!!*{j'{b;,b=..a*D>klb!n/__E')!!!&i&{j';]c4w@.# a",
"!!!!!&*=.di&!!!!!!b{j!!!{b*=.&&&%.%k],53n)<lo)!!!&*{FmB;]];>.$%&",
"!!!!!!b=.e&!!!!!!b>Gj!!!!!!=.&!!&a.%=bp(<>9qrs!!!!!{j'{H>b)I%&&!",
"!!!!!b>@%$!!!!!!b{BGjs!!!!b=%&!!!&&*];94]]4(8)!!!!b{jsb{>!b{%&!!",
"))))),^]*}!)))))|<]]12!)),]]*}!))))ntu4vwwxr,,)))),]12!))),]*}!)",
"__(33444/(33(___5_55_6(3(555_7____(304vvvv0(/5____55_6(3(_55_7__",
"%%!//9^^940/!%a%a%%%%%!5!%a%a%%%%%!//9^w400/!%a%a%%%%%!5!%a%a%%%",
"&$%{)b;>b9c,. #de&&&&&%f...$%&&&&$%{)b;Buv4,. #de&&&&&%f...$%&&&",
"&i&{j*{b*;]@.# e&!!!!!*=.d%&&!!!&i&{j';]c4w@.# e&!!!!!*=.d%&&!!!",
"!&*{j!!!!{b=.$%&!!!!!!b=.e&!!!!!!&*{FmB;]];>.$%&!!!!!!b=.e&!!!!!",
"!!!{j!!!!!*=.&&!!!!!!!{@.$!!!!!!!!!{j'{H>b)I%&&!!!!!!!{@.$!!!!!!",
"!!b{js!!!!b=%&!!!!!!!!b=.a&!!!!!!!b{jsb{>!b{%&!!!!!!!!b=.a&!!!!!",
")),]12!))),]*}!)))))),]]*%%!)))))),]12!))),]*}!)))))),]]*%%!))))",
"__55_6(3(_55_7____(3yvv43((3(_____55_6(3(_55_7____(3yvv43((3(___",
"a%%%%%!5!%aa%%%%%%!/yv4z40v/!%a%a%%%%%!5!%aa%%%%%%!/yv4z40v/!%a%",
"a&&&&.%f. .a&&&&&&%{b,]b9c9>. .$%&&&&.%f. .a&&&&&&%{b,]b9c9>. .&",
"&!!!&%C=.a$&!!!!!!*{j'{b;,b=..a&&!!!&%C=.a$&!!!!!!*{j'{b;,b=..a&",
"!!!!!&*=.di&!!!!!!b{j!!!{b*=.&&!!!!!!&*=.di&!!!!!!b{j!!!{b*=.&&!",
"!!!!!!b=.e&!!!!!!b>Gj!!!!!!=.&!!!!!!!!b=.e&!!!!!!b>Gj!!!!!!=.&!!",
"!!!!!b>@%$!!!!!!b{BGjs!!!!b=%&!!!!!!!b>@%$!!!!!!b{BGjs!!!!b=%&!!",
"))))),^]*}!)))))|<]]12!)),]]*}!)))))),^]*}!)))))|<]]12!)),]]*}!)",
"__(33444/(33(___5_55_6(3(555_7____(33444/(33(___5_55_8_3(555_7__",
"%%!//9^^940/!%a%a%%%%%!5!%a%a%%%%%!//9^^940/!%a%a%a%%%}8!%a%%%%%",
"&$%{)b;>b9c,. #de&&&&&%f...$%&&&&$%{)b;>b9c,. #d-g%&&&*{%a-h*&&&",
"&i&{j*{b*;]@.# e&!!!!!*=.d%&&!!!&i&{j*{b*;]@.# %g>klb!)l88mb)!!!",
"!&*{j!!!!{b=.$%&!!!!!!b=.e&!!!!!!&*{j!!!!{b=.$%$%.%k],5/n)blo)!!",
"!!!{j!!!!!*=.&&!!!!!!!{@.$!!!!!!!!!{j!!!!!*=.&&!&a.%=bp(<>9qrs!!",
"!!b{js!!!!b=%&!!!!!!!!b=.a&!!!!!!!b{js!!!!b=%&!!!&&*];94]]4(8)!!",
")),]12!))),]*}!)))))),]]*%%!)))))),]12!))),]*}!))))ntu4vwwxr,,))",
"__55_6(3(_55_7____(3yvv43((3(_____55_8_3(_55_7____(304vvvv0(/5__",
"a%%%%%!5!%aa%%%%%%!/yv4z40v/!%a%a%a%%%}8!%aa%%%%%%!//9^w400/!%a%",
"a&&&&.%f. .a&&&&&&%{b,]b9c9>. .$-g%&&&*|Aaaa&&&&&$%{)b;Buv4,. #$",
"&!!!&%C=.a$&!!!!!!*{j'{b;,b=..a*D>klb!n/__E')!!!&i&{j';]c4w@.# a",
"!!!!!&*=.di&!!!!!!b{j!!!{b*=.&&&%.%k],53n)<lo)!!!&*{FmB;]];>.$%&",
"!!!!!!b=.e&!!!!!!b>Gj!!!!!!=.&!!&a.%=bp(<>9qrs!!!!!{j'{H>b)I%&&!",
"!!!!!b>@%$!!!!!!b{BGjs!!!!b=%&!!!&&*];94]]4(8)!!!!b{jsb{>!b{%&!!",
"))))),^]*}!)))))|<]]12!)),]]*}!))))ntu4vwwxr,,)))),]12!))),]*}!)",
"__(33444/(33(___5_55_6(3(555_7____(304vvvv0(/5____55_6(3(_55_7__",
"%%!//9^^940/!%a%a%%%%%!5!%a%a%%%%%!//9^w400/!%a%a%%%%%!5!%a%a%%%",
"&$%{)b;>b9c,. #de&&&&&%f...$%&&&&$%{)b;Buv4,. #de&&&&&%f...$%&&&",
"&i&{j*{b*;]@.# e&!!!!!*=.d%&&!!!&i&{j';]c4w@.# e&!!!!!*=.d%&&!!!",
"!&*{j!!!!{b=.$%&!!!!!!b=.e&!!!!!!&*{FmB;]];>.$%&!!!!!!b=.e&!!!!!",
"!!!{j!!!!!*=.&&!!!!!!!{@.$!!!!!!!!!{j'{H>b)I%&&!!!!!!!{@.$!!!!!!",
"!!b{js!!!!b=%&!!!!!!!!b=.a&!!!!!!!b{jsb{>!b{%&!!!!!!!!b=.a&!!!!!",
")),]12!))),]*}!)))))),]]*%%!)))))),]12!))),]*}!)))))),]]*%%!))))",
"3yvv3/333yvv3(333333yvvv3((333333yvv3/333yvv3(333333yvvv3((33333"};
